<svg width="498" height="210" viewBox="0 0 498 210" fill="none" xmlns="http://www.w3.org/2000/svg">
<mask id="path-1-outside-1_2083_10" maskUnits="userSpaceOnUse" x="-0.641113" y="-0.27002" width="498" height="211" fill="black">
<rect fill="white" x="-0.641113" y="-0.27002" width="498" height="211"/>
<path d="M58.6889 57.63L58.1689 60.49L57.3889 62.18L56.9989 69.2L55.4389 74.92L54.7889 75.7L50.8889 76.35L45.8189 78.82L38.4089 79.08L36.7189 78.04L20.8589 78.82L13.1889 78.3L10.4589 79.73L7.07889 78.82L3.04889 77.13L1.74889 75.7L2.00889 73.23L7.85889 68.03L9.54889 67.51L11.2389 63.22L10.7189 57.89L10.1989 55.16L11.4989 44.63L12.1489 43.46L11.6289 40.99L13.1889 38.65L11.4989 30.85V22.27L11.2389 21.23V20.06L12.9289 18.11L12.1489 16.16L6.42889 10.7L3.04889 12.39L2.00889 11.35L1.35889 6.79998L3.95889 4.45998L8.76889 1.72998L18.1289 1.98998H28.5289L31.3889 3.41998L39.5789 1.98998L43.7389 3.02999L47.5089 3.41998L50.4989 5.10998H52.5789L55.6989 8.74998V13.04L56.4789 14.08L55.3089 21.23L52.1889 23.44L49.1989 23.18L47.1189 21.49L46.3389 20.84L47.5089 17.2L47.1189 14.73L44.1289 12.13L41.2689 12.78L36.1989 11.35L35.2889 12.13L31.6489 11.35L28.2689 12.78L24.8889 11.87L22.5489 13.82L21.5089 14.73L22.5489 21.49V30.85L21.7689 31.89V32.54L26.3189 35.27L32.8189 34.23L34.5089 33.32L37.4989 33.58L39.3189 35.27L48.8089 35.66L53.0989 40.34L55.3089 42.94L56.4789 47.49L57.1289 50.22L58.6889 52.56V57.63ZM48.8089 57.63V51.39L47.1189 46.06L43.7389 42.94H42.6989L37.4989 43.46L32.6889 42.42L31.3889 42.94L24.2389 43.46L22.5489 44.63L22.9389 54.77L21.7689 56.85L23.1989 59.84L22.9389 60.23L24.6289 65.3L28.2689 66.47L29.9589 63.22H30.7389L30.9989 63.61L32.6889 65.82L35.8089 68.16L39.3189 68.68L41.7889 66.99L43.7389 66.34L45.8189 66.47L46.3389 65.82L48.8089 57.63Z"/>
<path d="M133.154 76.61L130.684 77.78L125.613 79.08H120.544L120.153 78.3L110.273 78.82L108.583 79.73L105.203 78.04L102.733 74.92L104.424 69.46L105.854 68.16L110.013 69.46H110.534L111.183 68.16L110.273 63.61L111.183 59.58L110.534 55.42V53.34L111.183 50.35V40.34L110.924 34.23L110.534 26.56L107.153 23.7L106.894 23.18L110.273 20.32L110.013 18.63L107.153 16.03L107.543 14.34L105.854 12.78L103.773 13.04L102.733 14.34V16.03L100.653 17.72L99.3535 19.15L100.653 23.18L100.784 27.34L101.823 29.03L99.3535 32.54L100.133 38.13L98.1835 41.77L97.6635 45.15L99.0935 46.84V51.78L99.8735 52.82L100.133 53.47L99.3535 55.42L98.1835 58.54L97.6635 61.66L97.2735 62.96V66.34L95.8435 68.68L95.5835 72.84L88.8235 78.82L84.2735 79.08L81.5435 79.99L76.4735 78.82L73.8735 77.13L69.8435 70.63L70.4935 62.7L73.6135 59.97L84.2735 61.66L87.1335 59.97L88.0435 58.8L88.3035 55.03L89.9935 51.13L89.7335 48.66L89.0835 48.27L89.3435 40.08L88.8235 38.39L89.0835 32.15L89.3435 21.49L89.9935 20.32L88.8235 15.25L86.6135 13.82L83.7535 13.56L82.3235 11.35L81.2835 6.27998L82.3235 4.45998L84.6635 3.02999H90.5135L101.044 2.76998L101.563 2.50999L108.324 2.76998L110.534 4.19999L113.394 3.02999H115.343L117.034 4.45998L123.924 4.19999L125.354 3.02999L127.303 3.67999L128.993 8.48999V9.65999L126.133 12.13H121.843L120.153 13.82L121.063 19.15V24.87L120.284 26.56V30.72L119.633 31.63L120.284 38.39L118.854 40.99L120.284 48.27L119.373 50.35L120.153 55.16L118.464 58.54L119.373 62.96L120.153 67.77L123.273 70.63H128.343L129.514 72.06L129.773 74.66L133.154 76.35V76.61Z"/>
<path d="M205.538 10.96L204.888 12.13L203.458 12.78L200.468 12.65L199.038 13.04L198.128 14.47L198.778 19.8L198.128 22.92L200.078 25.65L197.348 30.46L196.698 35.53L195.918 39.82L197.088 43.72L196.438 46.84L197.088 56.72L197.608 59.32L198.128 68.03L199.298 69.46L202.158 69.85L204.368 72.97L205.148 75.7L204.888 76.61L201.768 78.3L190.458 78.82L187.988 78.04L183.958 78.82L180.968 76.61L179.278 74.53L179.538 71.28L182.268 68.94L185.388 69.46L187.338 66.99L188.768 59.32L186.038 49.18L188.768 44.37L189.938 40.34L189.418 24.87L188.898 24.61H187.988L185.388 27.99L184.608 30.46L182.918 32.28L182.658 34.75L178.888 39.3L177.198 44.11L175.898 46.97L175.508 49.44L173.558 50.87L172.648 52.04L172.128 55.16L170.438 57.89L169.398 64.39L168.488 66.08L168.748 68.94L170.178 70.37L169.398 71.15V72.32L173.038 73.23L172.778 76.22L171.348 77.13L165.368 77.78L161.988 78.3L157.698 77.39L145.348 77.13L143.268 74.92V73.75L148.078 69.85L148.988 67.77L150.938 65.3L152.368 61.01L152.628 55.03L153.538 52.56L153.148 48.66L153.538 44.37L154.838 42.42L154.058 31.37L153.278 27.47L153.148 22.53L152.368 20.84L153.278 16.16L151.848 11.87L150.938 9.52998L149.898 8.48999L146.648 9.52998L145.348 7.83999V5.88998L146.648 4.71998L149.248 5.36999L151.848 4.19999L156.398 3.67999L158.348 3.02999L161.078 3.67999L169.398 4.19999L171.088 5.88998V7.57998L165.888 12.13L163.158 12.78L161.988 13.56L161.468 14.34V21.23L160.298 22.92L161.078 25.39L159.778 30.72V35.66L158.608 40.34L160.298 43.46L158.088 47.49L158.608 56.72L160.818 58.54L161.988 58.28L163.418 55.94L164.458 52.56L165.888 48.66L168.488 45.28L168.748 43.72V42.68L173.038 39.3L174.338 33.06L175.898 27.99L177.848 25.78L177.198 19.8L176.938 19.54L180.578 16.03V7.05998L179.538 6.14999V5.36999L180.318 4.71998L184.348 4.45998L188.898 3.67999H195.918L202.418 4.19999L204.888 7.96999L205.538 10.96Z"/>
<path d="M243.603 20.84L242.433 21.88L240.743 21.62L240.223 20.45L240.743 18.24L241.523 17.46L243.343 18.24L243.603 19.93V20.84ZM280.653 23.57L280.523 25.26L278.963 26.17L275.713 25.39L275.453 24.48L276.103 20.19L275.453 18.76L276.493 17.46L278.963 19.15V20.45L280.653 23.57ZM290.143 8.87998L287.413 11.48H285.723L283.773 10.05L281.173 10.57L280.523 10.96L276.103 12.52L273.763 11.74L269.863 12.39L267.913 14.86V20.84L265.963 26.17L266.223 39.43L267.913 42.03L267.263 46.58V60.1L266.223 62.57L269.343 67.38L270.643 68.29H274.023L276.103 64.39L277.143 64.26H278.053L278.833 65.69L278.313 67.64L276.623 69.07L277.143 69.98L279.483 74.27L277.793 74.53L272.983 79.08L268.693 79.34L259.463 79.08L257.643 78.43L255.173 79.08H251.533L248.153 77.91L246.723 76.74V75.96L245.813 75.05L242.693 75.83L241.003 75.31L239.053 75.96L236.713 77.39L233.333 77.65L231.643 78.43L223.713 77.91H212.533L210.193 74.27L210.843 71.93L213.573 70.76L216.433 70.24L220.333 67.38L220.463 61.27L221.243 58.41L222.023 49.83L220.723 45.67L221.503 42.29L222.153 39.69L221.503 33.84L222.153 31.24L221.243 24.22L222.023 23.31L221.503 21.1L220.463 19.93L221.243 15.12V14.08L216.173 9.78999L212.793 9.26998L211.103 7.44998V5.49999L218.643 2.37999L222.153 3.02999L226.963 3.80998L228.653 2.11998L232.293 2.63998L237.103 3.28998L240.223 7.57998L244.123 8.35999L245.293 10.05L245.813 10.57L241.653 12.65L238.273 12.26L236.713 11.48L233.723 11.74L230.863 14.86V15.77L233.073 18.24L232.553 19.41L230.603 20.84L229.953 31.89L230.863 33.58H234.763L236.713 35.14L240.223 33.84L242.693 34.62L244.383 33.84L248.153 35.14L255.433 33.84L257.123 31.76V28.64L258.293 27.08L257.643 19.93L255.173 17.72L256.863 13.95L256.603 12.65L250.103 11.74L246.983 10.83L248.413 9.13999V5.49999L251.793 2.63998L254.913 3.28998L256.863 3.02999L257.643 2.37999L260.243 2.63998L261.023 3.28998L266.223 2.63998L267.653 3.28998H271.033L274.023 4.97999L277.793 5.88998L278.963 7.18999H283.383L285.723 5.75998L289.103 6.40998L290.143 7.57998V8.87998ZM281.173 44.5L279.743 45.41L277.273 42.81L276.363 38.39L278.053 36.83H278.963L280.523 38.39L281.173 43.07V44.5ZM258.293 53.34L256.603 44.89L255.173 43.72L249.453 43.33L246.723 42.29L238.273 42.03L236.713 43.07H234.243L230.603 42.29L229.953 43.07L228.913 47.1L229.953 49.57L228.913 56.72L229.953 57.89L230.863 62.83L230.343 64.26V66.86L232.293 69.33L238.793 70.24L242.693 69.33L244.123 69.98L245.813 72.84H246.983L250.103 70.24L256.213 69.07L257.123 66.08L256.863 57.89L258.293 53.34Z"/>
<path d="M349.527 40.73L345.237 43.72L341.077 44.89L337.697 50.22L338.477 55.03L339.257 56.2L337.697 60.49L337.307 61.92V63.22L341.857 68.16L345.757 68.94L347.837 71.28L348.617 73.75L348.357 75.7L344.977 78.04H331.457L329.377 78.82L324.047 77.39L322.357 77.13L320.667 74.53V71.28L322.357 69.85H325.737L328.077 67.77V62.18L329.767 55.16L329.377 53.73L326.257 50.87L322.097 51.13L320.407 51.78H315.597L313.647 52.82H305.457L298.697 47.75L294.407 42.03L293.237 38.78L293.757 36.44L293.237 33.06V29.68L292.457 28.25V27.08L294.407 24.61L293.237 19.15L294.147 15.25L292.457 12.13L290.767 10.96L289.077 11.35L286.997 11.22L284.267 6.79998V4.71998L285.697 3.67999L293.757 3.41998L295.837 4.19999L303.637 3.02999L307.667 4.19999L308.187 4.71998L307.147 9.65999L305.457 11.22L302.857 11.35L301.687 12.78L301.947 25.65L302.597 27.08L301.687 38.78L302.597 40.73L309.357 45.15L312.997 44.37L315.337 44.89H316.377L318.977 42.42H323.137L324.957 39.82L325.477 38.13L327.947 35.53L328.077 31.37L329.117 29.94L328.337 26.3L328.857 24.22L330.027 22.92L329.377 16.03V14.34L327.167 11.87L318.067 10.96L317.287 9.65999L320.667 6.27998L321.187 4.71998L322.877 3.41998L327.427 4.19999L328.857 3.41998L331.717 4.45998L333.927 3.02999L338.477 4.45998L341.857 4.71998L344.197 6.27998L344.977 7.83999L344.197 9.65999L342.377 11.22L339.907 11.35L338.477 13.04V23.18L338.997 32.15L340.687 35.01L343.287 36.7L347.447 38.13L349.527 39.3V40.73Z"/>
<path d="M419.962 10.96L419.312 12.13L417.882 12.78L414.892 12.65L413.462 13.04L412.552 14.47L413.202 19.8L412.552 22.92L414.502 25.65L411.772 30.46L411.122 35.53L410.342 39.82L411.512 43.72L410.862 46.84L411.512 56.72L412.032 59.32L412.552 68.03L413.722 69.46L416.582 69.85L418.792 72.97L419.572 75.7L419.312 76.61L416.192 78.3L404.882 78.82L402.412 78.04L398.382 78.82L395.392 76.61L393.702 74.53L393.962 71.28L396.692 68.94L399.812 69.46L401.762 66.99L403.192 59.32L400.462 49.18L403.192 44.37L404.362 40.34L403.842 24.87L403.322 24.61H402.412L399.812 27.99L399.032 30.46L397.342 32.28L397.082 34.75L393.312 39.3L391.622 44.11L390.322 46.97L389.932 49.44L387.982 50.87L387.072 52.04L386.552 55.16L384.862 57.89L383.822 64.39L382.912 66.08L383.172 68.94L384.602 70.37L383.822 71.15V72.32L387.462 73.23L387.202 76.22L385.772 77.13L379.792 77.78L376.412 78.3L372.122 77.39L359.772 77.13L357.692 74.92V73.75L362.502 69.85L363.412 67.77L365.362 65.3L366.792 61.01L367.052 55.03L367.962 52.56L367.572 48.66L367.962 44.37L369.262 42.42L368.482 31.37L367.702 27.47L367.572 22.53L366.792 20.84L367.702 16.16L366.272 11.87L365.362 9.52998L364.322 8.48999L361.072 9.52998L359.772 7.83999V5.88998L361.072 4.71998L363.672 5.36999L366.272 4.19999L370.822 3.67999L372.772 3.02999L375.502 3.67999L383.822 4.19999L385.512 5.88998V7.57998L380.312 12.13L377.582 12.78L376.412 13.56L375.892 14.34V21.23L374.722 22.92L375.502 25.39L374.202 30.72V35.66L373.032 40.34L374.722 43.46L372.512 47.49L373.032 56.72L375.242 58.54L376.412 58.28L377.842 55.94L378.882 52.56L380.312 48.66L382.912 45.28L383.172 43.72V42.68L387.462 39.3L388.762 33.06L390.322 27.99L392.272 25.78L391.622 19.8L391.362 19.54L395.002 16.03V7.05998L393.962 6.14999V5.36999L394.742 4.71998L398.772 4.45998L403.322 3.67999H410.342L416.842 4.19999L419.312 7.96999L419.962 10.96Z"/>
<path d="M496.247 7.70998L495.987 8.74998L494.817 9.65999L491.957 9.39998L489.747 7.96999L489.487 7.05998L491.957 5.49999L494.817 6.27998L496.247 7.70998ZM492.087 13.56L487.017 17.07L483.377 20.45L480.257 21.75L476.747 21.23L475.707 21.75L473.497 25.78L470.247 31.63V33.06L466.737 36.83L471.677 40.73L473.497 46.06L475.187 52.04L474.017 54.38V56.07L476.747 58.54L481.687 59.45H486.107L491.437 64.78V70.37L490.137 74.14L488.707 75.57L483.637 77.26L479.997 79.99L476.747 79.73L468.947 75.44L466.607 74.92L467.257 70.76L465.567 68.94L464.917 68.16V66.99L467.777 63.87L466.867 59.32V54.64L465.177 49.57L462.447 46.06L460.107 44.63L458.157 42.42L457.377 41.64L453.087 41.9L451.397 42.68L446.067 41.38L443.987 42.68L442.947 44.11V49.44L443.987 51.13L443.207 55.42L444.637 61.92L443.987 63.87L444.897 65.82L448.797 68.94L453.997 71.54L459.067 70.63L460.107 70.76H460.497L461.277 71.54V73.23L458.417 75.57H454.517L449.707 78.04L436.967 78.3H434.497L433.327 77.26H427.087L425.137 75.83V72.97L430.207 69.07L433.327 66.99L434.497 64.78L435.017 59.71L435.537 58.02L434.497 54.64L433.847 53.47L436.057 48.4L435.277 42.68L436.057 34.23L435.277 32.54L436.187 30.07L435.277 18.11L436.057 15.25L435.277 12.13L432.937 10.18H429.947L427.087 7.31999V4.58998L428.777 3.41998L434.367 2.24998L434.497 1.98998L443.987 2.89998L446.587 1.98998L449.707 2.24998L452.827 3.93998L455.037 4.58998L455.557 6.27998V7.31999L452.827 8.74998L451.397 10.57L451.137 12.26L448.797 13.82L447.107 12.78L446.327 13.04L445.677 13.82V17.33L446.327 18.11H448.277L449.057 18.76V19.02L448.277 19.8H446.067L445.417 20.71V26.3L444.637 28.9L445.417 32.54L446.327 33.45L450.487 32.54H456.467L460.107 25.78V22.92L460.757 22.14L460.107 18.11L460.497 16.16L461.797 15.38L462.707 13.95V12.78L463.877 11.87L466.867 11.09L467.517 9.39998L468.297 6.27998L469.467 4.58998L474.277 4.32999L477.397 1.98998L482.467 4.58998L484.677 5.10998L487.017 8.48999L487.277 9.65999L488.967 11.09L492.087 11.87V13.56Z"/>
<path d="M277.013 140.96L276.363 142.13L274.933 142.78L271.943 142.65L270.513 143.04L269.603 144.47L270.253 149.8L269.603 152.92L271.553 155.65L268.823 160.46L268.173 165.53L267.393 169.82L268.563 173.72L267.913 176.84L268.563 186.72L269.083 189.32L269.603 198.03L270.773 199.46L273.633 199.85L275.843 202.97L276.623 205.7L276.363 206.61L273.243 208.3L261.933 208.82L259.463 208.04L255.433 208.82L252.443 206.61L250.753 204.53L251.013 201.28L253.743 198.94L256.863 199.46L258.813 196.99L260.243 189.32L257.513 179.18L260.243 174.37L261.413 170.34L260.893 154.87L260.373 154.61H259.463L256.863 157.99L256.083 160.46L254.393 162.28L254.133 164.75L250.363 169.3L248.673 174.11L247.373 176.97L246.983 179.44L245.033 180.87L244.123 182.04L243.603 185.16L241.913 187.89L240.873 194.39L239.963 196.08L240.223 198.94L241.653 200.37L240.873 201.15V202.32L244.513 203.23L244.253 206.22L242.823 207.13L236.843 207.78L233.463 208.3L229.173 207.39L216.823 207.13L214.743 204.92V203.75L219.553 199.85L220.463 197.77L222.413 195.3L223.843 191.01L224.103 185.03L225.013 182.56L224.623 178.66L225.013 174.37L226.313 172.42L225.533 161.37L224.753 157.47L224.623 152.53L223.843 150.84L224.753 146.16L223.323 141.87L222.413 139.53L221.373 138.49L218.123 139.53L216.823 137.84V135.89L218.123 134.72L220.723 135.37L223.323 134.2L227.873 133.68L229.823 133.03L232.553 133.68L240.873 134.2L242.563 135.89V137.58L237.363 142.13L234.633 142.78L233.463 143.56L232.943 144.34V151.23L231.773 152.92L232.553 155.39L231.253 160.72V165.66L230.083 170.34L231.773 173.46L229.563 177.49L230.083 186.72L232.293 188.54L233.463 188.28L234.893 185.94L235.933 182.56L237.363 178.66L239.963 175.28L240.223 173.72V172.68L244.513 169.3L245.813 163.06L247.373 157.99L249.323 155.78L248.673 149.8L248.413 149.54L252.053 146.03V137.06L251.013 136.15V135.37L251.793 134.72L255.823 134.46L260.373 133.68H267.393L273.893 134.2L276.363 137.97L277.013 140.96Z"/>
</mask>
<path d="M58.6889 57.63L58.1689 60.49L57.3889 62.18L56.9989 69.2L55.4389 74.92L54.7889 75.7L50.8889 76.35L45.8189 78.82L38.4089 79.08L36.7189 78.04L20.8589 78.82L13.1889 78.3L10.4589 79.73L7.07889 78.82L3.04889 77.13L1.74889 75.7L2.00889 73.23L7.85889 68.03L9.54889 67.51L11.2389 63.22L10.7189 57.89L10.1989 55.16L11.4989 44.63L12.1489 43.46L11.6289 40.99L13.1889 38.65L11.4989 30.85V22.27L11.2389 21.23V20.06L12.9289 18.11L12.1489 16.16L6.42889 10.7L3.04889 12.39L2.00889 11.35L1.35889 6.79998L3.95889 4.45998L8.76889 1.72998L18.1289 1.98998H28.5289L31.3889 3.41998L39.5789 1.98998L43.7389 3.02999L47.5089 3.41998L50.4989 5.10998H52.5789L55.6989 8.74998V13.04L56.4789 14.08L55.3089 21.23L52.1889 23.44L49.1989 23.18L47.1189 21.49L46.3389 20.84L47.5089 17.2L47.1189 14.73L44.1289 12.13L41.2689 12.78L36.1989 11.35L35.2889 12.13L31.6489 11.35L28.2689 12.78L24.8889 11.87L22.5489 13.82L21.5089 14.73L22.5489 21.49V30.85L21.7689 31.89V32.54L26.3189 35.27L32.8189 34.23L34.5089 33.32L37.4989 33.58L39.3189 35.27L48.8089 35.66L53.0989 40.34L55.3089 42.94L56.4789 47.49L57.1289 50.22L58.6889 52.56V57.63ZM48.8089 57.63V51.39L47.1189 46.06L43.7389 42.94H42.6989L37.4989 43.46L32.6889 42.42L31.3889 42.94L24.2389 43.46L22.5489 44.63L22.9389 54.77L21.7689 56.85L23.1989 59.84L22.9389 60.23L24.6289 65.3L28.2689 66.47L29.9589 63.22H30.7389L30.9989 63.61L32.6889 65.82L35.8089 68.16L39.3189 68.68L41.7889 66.99L43.7389 66.34L45.8189 66.47L46.3389 65.82L48.8089 57.63Z" fill="#0D0D0D"/>
<path d="M133.154 76.61L130.684 77.78L125.613 79.08H120.544L120.153 78.3L110.273 78.82L108.583 79.73L105.203 78.04L102.733 74.92L104.424 69.46L105.854 68.16L110.013 69.46H110.534L111.183 68.16L110.273 63.61L111.183 59.58L110.534 55.42V53.34L111.183 50.35V40.34L110.924 34.23L110.534 26.56L107.153 23.7L106.894 23.18L110.273 20.32L110.013 18.63L107.153 16.03L107.543 14.34L105.854 12.78L103.773 13.04L102.733 14.34V16.03L100.653 17.72L99.3535 19.15L100.653 23.18L100.784 27.34L101.823 29.03L99.3535 32.54L100.133 38.13L98.1835 41.77L97.6635 45.15L99.0935 46.84V51.78L99.8735 52.82L100.133 53.47L99.3535 55.42L98.1835 58.54L97.6635 61.66L97.2735 62.96V66.34L95.8435 68.68L95.5835 72.84L88.8235 78.82L84.2735 79.08L81.5435 79.99L76.4735 78.82L73.8735 77.13L69.8435 70.63L70.4935 62.7L73.6135 59.97L84.2735 61.66L87.1335 59.97L88.0435 58.8L88.3035 55.03L89.9935 51.13L89.7335 48.66L89.0835 48.27L89.3435 40.08L88.8235 38.39L89.0835 32.15L89.3435 21.49L89.9935 20.32L88.8235 15.25L86.6135 13.82L83.7535 13.56L82.3235 11.35L81.2835 6.27998L82.3235 4.45998L84.6635 3.02999H90.5135L101.044 2.76998L101.563 2.50999L108.324 2.76998L110.534 4.19999L113.394 3.02999H115.343L117.034 4.45998L123.924 4.19999L125.354 3.02999L127.303 3.67999L128.993 8.48999V9.65999L126.133 12.13H121.843L120.153 13.82L121.063 19.15V24.87L120.284 26.56V30.72L119.633 31.63L120.284 38.39L118.854 40.99L120.284 48.27L119.373 50.35L120.153 55.16L118.464 58.54L119.373 62.96L120.153 67.77L123.273 70.63H128.343L129.514 72.06L129.773 74.66L133.154 76.35V76.61Z" fill="#0D0D0D"/>
<path d="M205.538 10.96L204.888 12.13L203.458 12.78L200.468 12.65L199.038 13.04L198.128 14.47L198.778 19.8L198.128 22.92L200.078 25.65L197.348 30.46L196.698 35.53L195.918 39.82L197.088 43.72L196.438 46.84L197.088 56.72L197.608 59.32L198.128 68.03L199.298 69.46L202.158 69.85L204.368 72.97L205.148 75.7L204.888 76.61L201.768 78.3L190.458 78.82L187.988 78.04L183.958 78.82L180.968 76.61L179.278 74.53L179.538 71.28L182.268 68.94L185.388 69.46L187.338 66.99L188.768 59.32L186.038 49.18L188.768 44.37L189.938 40.34L189.418 24.87L188.898 24.61H187.988L185.388 27.99L184.608 30.46L182.918 32.28L182.658 34.75L178.888 39.3L177.198 44.11L175.898 46.97L175.508 49.44L173.558 50.87L172.648 52.04L172.128 55.16L170.438 57.89L169.398 64.39L168.488 66.08L168.748 68.94L170.178 70.37L169.398 71.15V72.32L173.038 73.23L172.778 76.22L171.348 77.13L165.368 77.78L161.988 78.3L157.698 77.39L145.348 77.13L143.268 74.92V73.75L148.078 69.85L148.988 67.77L150.938 65.3L152.368 61.01L152.628 55.03L153.538 52.56L153.148 48.66L153.538 44.37L154.838 42.42L154.058 31.37L153.278 27.47L153.148 22.53L152.368 20.84L153.278 16.16L151.848 11.87L150.938 9.52998L149.898 8.48999L146.648 9.52998L145.348 7.83999V5.88998L146.648 4.71998L149.248 5.36999L151.848 4.19999L156.398 3.67999L158.348 3.02999L161.078 3.67999L169.398 4.19999L171.088 5.88998V7.57998L165.888 12.13L163.158 12.78L161.988 13.56L161.468 14.34V21.23L160.298 22.92L161.078 25.39L159.778 30.72V35.66L158.608 40.34L160.298 43.46L158.088 47.49L158.608 56.72L160.818 58.54L161.988 58.28L163.418 55.94L164.458 52.56L165.888 48.66L168.488 45.28L168.748 43.72V42.68L173.038 39.3L174.338 33.06L175.898 27.99L177.848 25.78L177.198 19.8L176.938 19.54L180.578 16.03V7.05998L179.538 6.14999V5.36999L180.318 4.71998L184.348 4.45998L188.898 3.67999H195.918L202.418 4.19999L204.888 7.96999L205.538 10.96Z" fill="#0D0D0D"/>
<path d="M243.603 20.84L242.433 21.88L240.743 21.62L240.223 20.45L240.743 18.24L241.523 17.46L243.343 18.24L243.603 19.93V20.84ZM280.653 23.57L280.523 25.26L278.963 26.17L275.713 25.39L275.453 24.48L276.103 20.19L275.453 18.76L276.493 17.46L278.963 19.15V20.45L280.653 23.57ZM290.143 8.87998L287.413 11.48H285.723L283.773 10.05L281.173 10.57L280.523 10.96L276.103 12.52L273.763 11.74L269.863 12.39L267.913 14.86V20.84L265.963 26.17L266.223 39.43L267.913 42.03L267.263 46.58V60.1L266.223 62.57L269.343 67.38L270.643 68.29H274.023L276.103 64.39L277.143 64.26H278.053L278.833 65.69L278.313 67.64L276.623 69.07L277.143 69.98L279.483 74.27L277.793 74.53L272.983 79.08L268.693 79.34L259.463 79.08L257.643 78.43L255.173 79.08H251.533L248.153 77.91L246.723 76.74V75.96L245.813 75.05L242.693 75.83L241.003 75.31L239.053 75.96L236.713 77.39L233.333 77.65L231.643 78.43L223.713 77.91H212.533L210.193 74.27L210.843 71.93L213.573 70.76L216.433 70.24L220.333 67.38L220.463 61.27L221.243 58.41L222.023 49.83L220.723 45.67L221.503 42.29L222.153 39.69L221.503 33.84L222.153 31.24L221.243 24.22L222.023 23.31L221.503 21.1L220.463 19.93L221.243 15.12V14.08L216.173 9.78999L212.793 9.26998L211.103 7.44998V5.49999L218.643 2.37999L222.153 3.02999L226.963 3.80998L228.653 2.11998L232.293 2.63998L237.103 3.28998L240.223 7.57998L244.123 8.35999L245.293 10.05L245.813 10.57L241.653 12.65L238.273 12.26L236.713 11.48L233.723 11.74L230.863 14.86V15.77L233.073 18.24L232.553 19.41L230.603 20.84L229.953 31.89L230.863 33.58H234.763L236.713 35.14L240.223 33.84L242.693 34.62L244.383 33.84L248.153 35.14L255.433 33.84L257.123 31.76V28.64L258.293 27.08L257.643 19.93L255.173 17.72L256.863 13.95L256.603 12.65L250.103 11.74L246.983 10.83L248.413 9.13999V5.49999L251.793 2.63998L254.913 3.28998L256.863 3.02999L257.643 2.37999L260.243 2.63998L261.023 3.28998L266.223 2.63998L267.653 3.28998H271.033L274.023 4.97999L277.793 5.88998L278.963 7.18999H283.383L285.723 5.75998L289.103 6.40998L290.143 7.57998V8.87998ZM281.173 44.5L279.743 45.41L277.273 42.81L276.363 38.39L278.053 36.83H278.963L280.523 38.39L281.173 43.07V44.5ZM258.293 53.34L256.603 44.89L255.173 43.72L249.453 43.33L246.723 42.29L238.273 42.03L236.713 43.07H234.243L230.603 42.29L229.953 43.07L228.913 47.1L229.953 49.57L228.913 56.72L229.953 57.89L230.863 62.83L230.343 64.26V66.86L232.293 69.33L238.793 70.24L242.693 69.33L244.123 69.98L245.813 72.84H246.983L250.103 70.24L256.213 69.07L257.123 66.08L256.863 57.89L258.293 53.34Z" fill="#0D0D0D"/>
<path d="M349.527 40.73L345.237 43.72L341.077 44.89L337.697 50.22L338.477 55.03L339.257 56.2L337.697 60.49L337.307 61.92V63.22L341.857 68.16L345.757 68.94L347.837 71.28L348.617 73.75L348.357 75.7L344.977 78.04H331.457L329.377 78.82L324.047 77.39L322.357 77.13L320.667 74.53V71.28L322.357 69.85H325.737L328.077 67.77V62.18L329.767 55.16L329.377 53.73L326.257 50.87L322.097 51.13L320.407 51.78H315.597L313.647 52.82H305.457L298.697 47.75L294.407 42.03L293.237 38.78L293.757 36.44L293.237 33.06V29.68L292.457 28.25V27.08L294.407 24.61L293.237 19.15L294.147 15.25L292.457 12.13L290.767 10.96L289.077 11.35L286.997 11.22L284.267 6.79998V4.71998L285.697 3.67999L293.757 3.41998L295.837 4.19999L303.637 3.02999L307.667 4.19999L308.187 4.71998L307.147 9.65999L305.457 11.22L302.857 11.35L301.687 12.78L301.947 25.65L302.597 27.08L301.687 38.78L302.597 40.73L309.357 45.15L312.997 44.37L315.337 44.89H316.377L318.977 42.42H323.137L324.957 39.82L325.477 38.13L327.947 35.53L328.077 31.37L329.117 29.94L328.337 26.3L328.857 24.22L330.027 22.92L329.377 16.03V14.34L327.167 11.87L318.067 10.96L317.287 9.65999L320.667 6.27998L321.187 4.71998L322.877 3.41998L327.427 4.19999L328.857 3.41998L331.717 4.45998L333.927 3.02999L338.477 4.45998L341.857 4.71998L344.197 6.27998L344.977 7.83999L344.197 9.65999L342.377 11.22L339.907 11.35L338.477 13.04V23.18L338.997 32.15L340.687 35.01L343.287 36.7L347.447 38.13L349.527 39.3V40.73Z" fill="#0D0D0D"/>
<path d="M419.962 10.96L419.312 12.13L417.882 12.78L414.892 12.65L413.462 13.04L412.552 14.47L413.202 19.8L412.552 22.92L414.502 25.65L411.772 30.46L411.122 35.53L410.342 39.82L411.512 43.72L410.862 46.84L411.512 56.72L412.032 59.32L412.552 68.03L413.722 69.46L416.582 69.85L418.792 72.97L419.572 75.7L419.312 76.61L416.192 78.3L404.882 78.82L402.412 78.04L398.382 78.82L395.392 76.61L393.702 74.53L393.962 71.28L396.692 68.94L399.812 69.46L401.762 66.99L403.192 59.32L400.462 49.18L403.192 44.37L404.362 40.34L403.842 24.87L403.322 24.61H402.412L399.812 27.99L399.032 30.46L397.342 32.28L397.082 34.75L393.312 39.3L391.622 44.11L390.322 46.97L389.932 49.44L387.982 50.87L387.072 52.04L386.552 55.16L384.862 57.89L383.822 64.39L382.912 66.08L383.172 68.94L384.602 70.37L383.822 71.15V72.32L387.462 73.23L387.202 76.22L385.772 77.13L379.792 77.78L376.412 78.3L372.122 77.39L359.772 77.13L357.692 74.92V73.75L362.502 69.85L363.412 67.77L365.362 65.3L366.792 61.01L367.052 55.03L367.962 52.56L367.572 48.66L367.962 44.37L369.262 42.42L368.482 31.37L367.702 27.47L367.572 22.53L366.792 20.84L367.702 16.16L366.272 11.87L365.362 9.52998L364.322 8.48999L361.072 9.52998L359.772 7.83999V5.88998L361.072 4.71998L363.672 5.36999L366.272 4.19999L370.822 3.67999L372.772 3.02999L375.502 3.67999L383.822 4.19999L385.512 5.88998V7.57998L380.312 12.13L377.582 12.78L376.412 13.56L375.892 14.34V21.23L374.722 22.92L375.502 25.39L374.202 30.72V35.66L373.032 40.34L374.722 43.46L372.512 47.49L373.032 56.72L375.242 58.54L376.412 58.28L377.842 55.94L378.882 52.56L380.312 48.66L382.912 45.28L383.172 43.72V42.68L387.462 39.3L388.762 33.06L390.322 27.99L392.272 25.78L391.622 19.8L391.362 19.54L395.002 16.03V7.05998L393.962 6.14999V5.36999L394.742 4.71998L398.772 4.45998L403.322 3.67999H410.342L416.842 4.19999L419.312 7.96999L419.962 10.96Z" fill="#0D0D0D"/>
<path d="M496.247 7.70998L495.987 8.74998L494.817 9.65999L491.957 9.39998L489.747 7.96999L489.487 7.05998L491.957 5.49999L494.817 6.27998L496.247 7.70998ZM492.087 13.56L487.017 17.07L483.377 20.45L480.257 21.75L476.747 21.23L475.707 21.75L473.497 25.78L470.247 31.63V33.06L466.737 36.83L471.677 40.73L473.497 46.06L475.187 52.04L474.017 54.38V56.07L476.747 58.54L481.687 59.45H486.107L491.437 64.78V70.37L490.137 74.14L488.707 75.57L483.637 77.26L479.997 79.99L476.747 79.73L468.947 75.44L466.607 74.92L467.257 70.76L465.567 68.94L464.917 68.16V66.99L467.777 63.87L466.867 59.32V54.64L465.177 49.57L462.447 46.06L460.107 44.63L458.157 42.42L457.377 41.64L453.087 41.9L451.397 42.68L446.067 41.38L443.987 42.68L442.947 44.11V49.44L443.987 51.13L443.207 55.42L444.637 61.92L443.987 63.87L444.897 65.82L448.797 68.94L453.997 71.54L459.067 70.63L460.107 70.76H460.497L461.277 71.54V73.23L458.417 75.57H454.517L449.707 78.04L436.967 78.3H434.497L433.327 77.26H427.087L425.137 75.83V72.97L430.207 69.07L433.327 66.99L434.497 64.78L435.017 59.71L435.537 58.02L434.497 54.64L433.847 53.47L436.057 48.4L435.277 42.68L436.057 34.23L435.277 32.54L436.187 30.07L435.277 18.11L436.057 15.25L435.277 12.13L432.937 10.18H429.947L427.087 7.31999V4.58998L428.777 3.41998L434.367 2.24998L434.497 1.98998L443.987 2.89998L446.587 1.98998L449.707 2.24998L452.827 3.93998L455.037 4.58998L455.557 6.27998V7.31999L452.827 8.74998L451.397 10.57L451.137 12.26L448.797 13.82L447.107 12.78L446.327 13.04L445.677 13.82V17.33L446.327 18.11H448.277L449.057 18.76V19.02L448.277 19.8H446.067L445.417 20.71V26.3L444.637 28.9L445.417 32.54L446.327 33.45L450.487 32.54H456.467L460.107 25.78V22.92L460.757 22.14L460.107 18.11L460.497 16.16L461.797 15.38L462.707 13.95V12.78L463.877 11.87L466.867 11.09L467.517 9.39998L468.297 6.27998L469.467 4.58998L474.277 4.32999L477.397 1.98998L482.467 4.58998L484.677 5.10998L487.017 8.48999L487.277 9.65999L488.967 11.09L492.087 11.87V13.56Z" fill="#0D0D0D"/>
<path d="M277.013 140.96L276.363 142.13L274.933 142.78L271.943 142.65L270.513 143.04L269.603 144.47L270.253 149.8L269.603 152.92L271.553 155.65L268.823 160.46L268.173 165.53L267.393 169.82L268.563 173.72L267.913 176.84L268.563 186.72L269.083 189.32L269.603 198.03L270.773 199.46L273.633 199.85L275.843 202.97L276.623 205.7L276.363 206.61L273.243 208.3L261.933 208.82L259.463 208.04L255.433 208.82L252.443 206.61L250.753 204.53L251.013 201.28L253.743 198.94L256.863 199.46L258.813 196.99L260.243 189.32L257.513 179.18L260.243 174.37L261.413 170.34L260.893 154.87L260.373 154.61H259.463L256.863 157.99L256.083 160.46L254.393 162.28L254.133 164.75L250.363 169.3L248.673 174.11L247.373 176.97L246.983 179.44L245.033 180.87L244.123 182.04L243.603 185.16L241.913 187.89L240.873 194.39L239.963 196.08L240.223 198.94L241.653 200.37L240.873 201.15V202.32L244.513 203.23L244.253 206.22L242.823 207.13L236.843 207.78L233.463 208.3L229.173 207.39L216.823 207.13L214.743 204.92V203.75L219.553 199.85L220.463 197.77L222.413 195.3L223.843 191.01L224.103 185.03L225.013 182.56L224.623 178.66L225.013 174.37L226.313 172.42L225.533 161.37L224.753 157.47L224.623 152.53L223.843 150.84L224.753 146.16L223.323 141.87L222.413 139.53L221.373 138.49L218.123 139.53L216.823 137.84V135.89L218.123 134.72L220.723 135.37L223.323 134.2L227.873 133.68L229.823 133.03L232.553 133.68L240.873 134.2L242.563 135.89V137.58L237.363 142.13L234.633 142.78L233.463 143.56L232.943 144.34V151.23L231.773 152.92L232.553 155.39L231.253 160.72V165.66L230.083 170.34L231.773 173.46L229.563 177.49L230.083 186.72L232.293 188.54L233.463 188.28L234.893 185.94L235.933 182.56L237.363 178.66L239.963 175.28L240.223 173.72V172.68L244.513 169.3L245.813 163.06L247.373 157.99L249.323 155.78L248.673 149.8L248.413 149.54L252.053 146.03V137.06L251.013 136.15V135.37L251.793 134.72L255.823 134.46L260.373 133.68H267.393L273.893 134.2L276.363 137.97L277.013 140.96Z" fill="#0D0D0D"/>
<path d="M58.6889 57.63L58.1689 60.49L57.3889 62.18L56.9989 69.2L55.4389 74.92L54.7889 75.7L50.8889 76.35L45.8189 78.82L38.4089 79.08L36.7189 78.04L20.8589 78.82L13.1889 78.3L10.4589 79.73L7.07889 78.82L3.04889 77.13L1.74889 75.7L2.00889 73.23L7.85889 68.03L9.54889 67.51L11.2389 63.22L10.7189 57.89L10.1989 55.16L11.4989 44.63L12.1489 43.46L11.6289 40.99L13.1889 38.65L11.4989 30.85V22.27L11.2389 21.23V20.06L12.9289 18.11L12.1489 16.16L6.42889 10.7L3.04889 12.39L2.00889 11.35L1.35889 6.79998L3.95889 4.45998L8.76889 1.72998L18.1289 1.98998H28.5289L31.3889 3.41998L39.5789 1.98998L43.7389 3.02999L47.5089 3.41998L50.4989 5.10998H52.5789L55.6989 8.74998V13.04L56.4789 14.08L55.3089 21.23L52.1889 23.44L49.1989 23.18L47.1189 21.49L46.3389 20.84L47.5089 17.2L47.1189 14.73L44.1289 12.13L41.2689 12.78L36.1989 11.35L35.2889 12.13L31.6489 11.35L28.2689 12.78L24.8889 11.87L22.5489 13.82L21.5089 14.73L22.5489 21.49V30.85L21.7689 31.89V32.54L26.3189 35.27L32.8189 34.23L34.5089 33.32L37.4989 33.58L39.3189 35.27L48.8089 35.66L53.0989 40.34L55.3089 42.94L56.4789 47.49L57.1289 50.22L58.6889 52.56V57.63ZM48.8089 57.63V51.39L47.1189 46.06L43.7389 42.94H42.6989L37.4989 43.46L32.6889 42.42L31.3889 42.94L24.2389 43.46L22.5489 44.63L22.9389 54.77L21.7689 56.85L23.1989 59.84L22.9389 60.23L24.6289 65.3L28.2689 66.47L29.9589 63.22H30.7389L30.9989 63.61L32.6889 65.82L35.8089 68.16L39.3189 68.68L41.7889 66.99L43.7389 66.34L45.8189 66.47L46.3389 65.82L48.8089 57.63Z" stroke="black" stroke-width="2" mask="url(#path-1-outside-1_2083_10)"/>
<path d="M133.154 76.61L130.684 77.78L125.613 79.08H120.544L120.153 78.3L110.273 78.82L108.583 79.73L105.203 78.04L102.733 74.92L104.424 69.46L105.854 68.16L110.013 69.46H110.534L111.183 68.16L110.273 63.61L111.183 59.58L110.534 55.42V53.34L111.183 50.35V40.34L110.924 34.23L110.534 26.56L107.153 23.7L106.894 23.18L110.273 20.32L110.013 18.63L107.153 16.03L107.543 14.34L105.854 12.78L103.773 13.04L102.733 14.34V16.03L100.653 17.72L99.3535 19.15L100.653 23.18L100.784 27.34L101.823 29.03L99.3535 32.54L100.133 38.13L98.1835 41.77L97.6635 45.15L99.0935 46.84V51.78L99.8735 52.82L100.133 53.47L99.3535 55.42L98.1835 58.54L97.6635 61.66L97.2735 62.96V66.34L95.8435 68.68L95.5835 72.84L88.8235 78.82L84.2735 79.08L81.5435 79.99L76.4735 78.82L73.8735 77.13L69.8435 70.63L70.4935 62.7L73.6135 59.97L84.2735 61.66L87.1335 59.97L88.0435 58.8L88.3035 55.03L89.9935 51.13L89.7335 48.66L89.0835 48.27L89.3435 40.08L88.8235 38.39L89.0835 32.15L89.3435 21.49L89.9935 20.32L88.8235 15.25L86.6135 13.82L83.7535 13.56L82.3235 11.35L81.2835 6.27998L82.3235 4.45998L84.6635 3.02999H90.5135L101.044 2.76998L101.563 2.50999L108.324 2.76998L110.534 4.19999L113.394 3.02999H115.343L117.034 4.45998L123.924 4.19999L125.354 3.02999L127.303 3.67999L128.993 8.48999V9.65999L126.133 12.13H121.843L120.153 13.82L121.063 19.15V24.87L120.284 26.56V30.72L119.633 31.63L120.284 38.39L118.854 40.99L120.284 48.27L119.373 50.35L120.153 55.16L118.464 58.54L119.373 62.96L120.153 67.77L123.273 70.63H128.343L129.514 72.06L129.773 74.66L133.154 76.35V76.61Z" stroke="black" stroke-width="2" mask="url(#path-1-outside-1_2083_10)"/>
<path d="M205.538 10.96L204.888 12.13L203.458 12.78L200.468 12.65L199.038 13.04L198.128 14.47L198.778 19.8L198.128 22.92L200.078 25.65L197.348 30.46L196.698 35.53L195.918 39.82L197.088 43.72L196.438 46.84L197.088 56.72L197.608 59.32L198.128 68.03L199.298 69.46L202.158 69.85L204.368 72.97L205.148 75.7L204.888 76.61L201.768 78.3L190.458 78.82L187.988 78.04L183.958 78.82L180.968 76.61L179.278 74.53L179.538 71.28L182.268 68.94L185.388 69.46L187.338 66.99L188.768 59.32L186.038 49.18L188.768 44.37L189.938 40.34L189.418 24.87L188.898 24.61H187.988L185.388 27.99L184.608 30.46L182.918 32.28L182.658 34.75L178.888 39.3L177.198 44.11L175.898 46.97L175.508 49.44L173.558 50.87L172.648 52.04L172.128 55.16L170.438 57.89L169.398 64.39L168.488 66.08L168.748 68.94L170.178 70.37L169.398 71.15V72.32L173.038 73.23L172.778 76.22L171.348 77.13L165.368 77.78L161.988 78.3L157.698 77.39L145.348 77.13L143.268 74.92V73.75L148.078 69.85L148.988 67.77L150.938 65.3L152.368 61.01L152.628 55.03L153.538 52.56L153.148 48.66L153.538 44.37L154.838 42.42L154.058 31.37L153.278 27.47L153.148 22.53L152.368 20.84L153.278 16.16L151.848 11.87L150.938 9.52998L149.898 8.48999L146.648 9.52998L145.348 7.83999V5.88998L146.648 4.71998L149.248 5.36999L151.848 4.19999L156.398 3.67999L158.348 3.02999L161.078 3.67999L169.398 4.19999L171.088 5.88998V7.57998L165.888 12.13L163.158 12.78L161.988 13.56L161.468 14.34V21.23L160.298 22.92L161.078 25.39L159.778 30.72V35.66L158.608 40.34L160.298 43.46L158.088 47.49L158.608 56.72L160.818 58.54L161.988 58.28L163.418 55.94L164.458 52.56L165.888 48.66L168.488 45.28L168.748 43.72V42.68L173.038 39.3L174.338 33.06L175.898 27.99L177.848 25.78L177.198 19.8L176.938 19.54L180.578 16.03V7.05998L179.538 6.14999V5.36999L180.318 4.71998L184.348 4.45998L188.898 3.67999H195.918L202.418 4.19999L204.888 7.96999L205.538 10.96Z" stroke="black" stroke-width="2" mask="url(#path-1-outside-1_2083_10)"/>
<path d="M243.603 20.84L242.433 21.88L240.743 21.62L240.223 20.45L240.743 18.24L241.523 17.46L243.343 18.24L243.603 19.93V20.84ZM280.653 23.57L280.523 25.26L278.963 26.17L275.713 25.39L275.453 24.48L276.103 20.19L275.453 18.76L276.493 17.46L278.963 19.15V20.45L280.653 23.57ZM290.143 8.87998L287.413 11.48H285.723L283.773 10.05L281.173 10.57L280.523 10.96L276.103 12.52L273.763 11.74L269.863 12.39L267.913 14.86V20.84L265.963 26.17L266.223 39.43L267.913 42.03L267.263 46.58V60.1L266.223 62.57L269.343 67.38L270.643 68.29H274.023L276.103 64.39L277.143 64.26H278.053L278.833 65.69L278.313 67.64L276.623 69.07L277.143 69.98L279.483 74.27L277.793 74.53L272.983 79.08L268.693 79.34L259.463 79.08L257.643 78.43L255.173 79.08H251.533L248.153 77.91L246.723 76.74V75.96L245.813 75.05L242.693 75.83L241.003 75.31L239.053 75.96L236.713 77.39L233.333 77.65L231.643 78.43L223.713 77.91H212.533L210.193 74.27L210.843 71.93L213.573 70.76L216.433 70.24L220.333 67.38L220.463 61.27L221.243 58.41L222.023 49.83L220.723 45.67L221.503 42.29L222.153 39.69L221.503 33.84L222.153 31.24L221.243 24.22L222.023 23.31L221.503 21.1L220.463 19.93L221.243 15.12V14.08L216.173 9.78999L212.793 9.26998L211.103 7.44998V5.49999L218.643 2.37999L222.153 3.02999L226.963 3.80998L228.653 2.11998L232.293 2.63998L237.103 3.28998L240.223 7.57998L244.123 8.35999L245.293 10.05L245.813 10.57L241.653 12.65L238.273 12.26L236.713 11.48L233.723 11.74L230.863 14.86V15.77L233.073 18.24L232.553 19.41L230.603 20.84L229.953 31.89L230.863 33.58H234.763L236.713 35.14L240.223 33.84L242.693 34.62L244.383 33.84L248.153 35.14L255.433 33.84L257.123 31.76V28.64L258.293 27.08L257.643 19.93L255.173 17.72L256.863 13.95L256.603 12.65L250.103 11.74L246.983 10.83L248.413 9.13999V5.49999L251.793 2.63998L254.913 3.28998L256.863 3.02999L257.643 2.37999L260.243 2.63998L261.023 3.28998L266.223 2.63998L267.653 3.28998H271.033L274.023 4.97999L277.793 5.88998L278.963 7.18999H283.383L285.723 5.75998L289.103 6.40998L290.143 7.57998V8.87998ZM281.173 44.5L279.743 45.41L277.273 42.81L276.363 38.39L278.053 36.83H278.963L280.523 38.39L281.173 43.07V44.5ZM258.293 53.34L256.603 44.89L255.173 43.72L249.453 43.33L246.723 42.29L238.273 42.03L236.713 43.07H234.243L230.603 42.29L229.953 43.07L228.913 47.1L229.953 49.57L228.913 56.72L229.953 57.89L230.863 62.83L230.343 64.26V66.86L232.293 69.33L238.793 70.24L242.693 69.33L244.123 69.98L245.813 72.84H246.983L250.103 70.24L256.213 69.07L257.123 66.08L256.863 57.89L258.293 53.34Z" stroke="black" stroke-width="2" mask="url(#path-1-outside-1_2083_10)"/>
<path d="M349.527 40.73L345.237 43.72L341.077 44.89L337.697 50.22L338.477 55.03L339.257 56.2L337.697 60.49L337.307 61.92V63.22L341.857 68.16L345.757 68.94L347.837 71.28L348.617 73.75L348.357 75.7L344.977 78.04H331.457L329.377 78.82L324.047 77.39L322.357 77.13L320.667 74.53V71.28L322.357 69.85H325.737L328.077 67.77V62.18L329.767 55.16L329.377 53.73L326.257 50.87L322.097 51.13L320.407 51.78H315.597L313.647 52.82H305.457L298.697 47.75L294.407 42.03L293.237 38.78L293.757 36.44L293.237 33.06V29.68L292.457 28.25V27.08L294.407 24.61L293.237 19.15L294.147 15.25L292.457 12.13L290.767 10.96L289.077 11.35L286.997 11.22L284.267 6.79998V4.71998L285.697 3.67999L293.757 3.41998L295.837 4.19999L303.637 3.02999L307.667 4.19999L308.187 4.71998L307.147 9.65999L305.457 11.22L302.857 11.35L301.687 12.78L301.947 25.65L302.597 27.08L301.687 38.78L302.597 40.73L309.357 45.15L312.997 44.37L315.337 44.89H316.377L318.977 42.42H323.137L324.957 39.82L325.477 38.13L327.947 35.53L328.077 31.37L329.117 29.94L328.337 26.3L328.857 24.22L330.027 22.92L329.377 16.03V14.34L327.167 11.87L318.067 10.96L317.287 9.65999L320.667 6.27998L321.187 4.71998L322.877 3.41998L327.427 4.19999L328.857 3.41998L331.717 4.45998L333.927 3.02999L338.477 4.45998L341.857 4.71998L344.197 6.27998L344.977 7.83999L344.197 9.65999L342.377 11.22L339.907 11.35L338.477 13.04V23.18L338.997 32.15L340.687 35.01L343.287 36.7L347.447 38.13L349.527 39.3V40.73Z" stroke="black" stroke-width="2" mask="url(#path-1-outside-1_2083_10)"/>
<path d="M419.962 10.96L419.312 12.13L417.882 12.78L414.892 12.65L413.462 13.04L412.552 14.47L413.202 19.8L412.552 22.92L414.502 25.65L411.772 30.46L411.122 35.53L410.342 39.82L411.512 43.72L410.862 46.84L411.512 56.72L412.032 59.32L412.552 68.03L413.722 69.46L416.582 69.85L418.792 72.97L419.572 75.7L419.312 76.61L416.192 78.3L404.882 78.82L402.412 78.04L398.382 78.82L395.392 76.61L393.702 74.53L393.962 71.28L396.692 68.94L399.812 69.46L401.762 66.99L403.192 59.32L400.462 49.18L403.192 44.37L404.362 40.34L403.842 24.87L403.322 24.61H402.412L399.812 27.99L399.032 30.46L397.342 32.28L397.082 34.75L393.312 39.3L391.622 44.11L390.322 46.97L389.932 49.44L387.982 50.87L387.072 52.04L386.552 55.16L384.862 57.89L383.822 64.39L382.912 66.08L383.172 68.94L384.602 70.37L383.822 71.15V72.32L387.462 73.23L387.202 76.22L385.772 77.13L379.792 77.78L376.412 78.3L372.122 77.39L359.772 77.13L357.692 74.92V73.75L362.502 69.85L363.412 67.77L365.362 65.3L366.792 61.01L367.052 55.03L367.962 52.56L367.572 48.66L367.962 44.37L369.262 42.42L368.482 31.37L367.702 27.47L367.572 22.53L366.792 20.84L367.702 16.16L366.272 11.87L365.362 9.52998L364.322 8.48999L361.072 9.52998L359.772 7.83999V5.88998L361.072 4.71998L363.672 5.36999L366.272 4.19999L370.822 3.67999L372.772 3.02999L375.502 3.67999L383.822 4.19999L385.512 5.88998V7.57998L380.312 12.13L377.582 12.78L376.412 13.56L375.892 14.34V21.23L374.722 22.92L375.502 25.39L374.202 30.72V35.66L373.032 40.34L374.722 43.46L372.512 47.49L373.032 56.72L375.242 58.54L376.412 58.28L377.842 55.94L378.882 52.56L380.312 48.66L382.912 45.28L383.172 43.72V42.68L387.462 39.3L388.762 33.06L390.322 27.99L392.272 25.78L391.622 19.8L391.362 19.54L395.002 16.03V7.05998L393.962 6.14999V5.36999L394.742 4.71998L398.772 4.45998L403.322 3.67999H410.342L416.842 4.19999L419.312 7.96999L419.962 10.96Z" stroke="black" stroke-width="2" mask="url(#path-1-outside-1_2083_10)"/>
<path d="M496.247 7.70998L495.987 8.74998L494.817 9.65999L491.957 9.39998L489.747 7.96999L489.487 7.05998L491.957 5.49999L494.817 6.27998L496.247 7.70998ZM492.087 13.56L487.017 17.07L483.377 20.45L480.257 21.75L476.747 21.23L475.707 21.75L473.497 25.78L470.247 31.63V33.06L466.737 36.83L471.677 40.73L473.497 46.06L475.187 52.04L474.017 54.38V56.07L476.747 58.54L481.687 59.45H486.107L491.437 64.78V70.37L490.137 74.14L488.707 75.57L483.637 77.26L479.997 79.99L476.747 79.73L468.947 75.44L466.607 74.92L467.257 70.76L465.567 68.94L464.917 68.16V66.99L467.777 63.87L466.867 59.32V54.64L465.177 49.57L462.447 46.06L460.107 44.63L458.157 42.42L457.377 41.64L453.087 41.9L451.397 42.68L446.067 41.38L443.987 42.68L442.947 44.11V49.44L443.987 51.13L443.207 55.42L444.637 61.92L443.987 63.87L444.897 65.82L448.797 68.94L453.997 71.54L459.067 70.63L460.107 70.76H460.497L461.277 71.54V73.23L458.417 75.57H454.517L449.707 78.04L436.967 78.3H434.497L433.327 77.26H427.087L425.137 75.83V72.97L430.207 69.07L433.327 66.99L434.497 64.78L435.017 59.71L435.537 58.02L434.497 54.64L433.847 53.47L436.057 48.4L435.277 42.68L436.057 34.23L435.277 32.54L436.187 30.07L435.277 18.11L436.057 15.25L435.277 12.13L432.937 10.18H429.947L427.087 7.31999V4.58998L428.777 3.41998L434.367 2.24998L434.497 1.98998L443.987 2.89998L446.587 1.98998L449.707 2.24998L452.827 3.93998L455.037 4.58998L455.557 6.27998V7.31999L452.827 8.74998L451.397 10.57L451.137 12.26L448.797 13.82L447.107 12.78L446.327 13.04L445.677 13.82V17.33L446.327 18.11H448.277L449.057 18.76V19.02L448.277 19.8H446.067L445.417 20.71V26.3L444.637 28.9L445.417 32.54L446.327 33.45L450.487 32.54H456.467L460.107 25.78V22.92L460.757 22.14L460.107 18.11L460.497 16.16L461.797 15.38L462.707 13.95V12.78L463.877 11.87L466.867 11.09L467.517 9.39998L468.297 6.27998L469.467 4.58998L474.277 4.32999L477.397 1.98998L482.467 4.58998L484.677 5.10998L487.017 8.48999L487.277 9.65999L488.967 11.09L492.087 11.87V13.56Z" stroke="black" stroke-width="2" mask="url(#path-1-outside-1_2083_10)"/>
<path d="M277.013 140.96L276.363 142.13L274.933 142.78L271.943 142.65L270.513 143.04L269.603 144.47L270.253 149.8L269.603 152.92L271.553 155.65L268.823 160.46L268.173 165.53L267.393 169.82L268.563 173.72L267.913 176.84L268.563 186.72L269.083 189.32L269.603 198.03L270.773 199.46L273.633 199.85L275.843 202.97L276.623 205.7L276.363 206.61L273.243 208.3L261.933 208.82L259.463 208.04L255.433 208.82L252.443 206.61L250.753 204.53L251.013 201.28L253.743 198.94L256.863 199.46L258.813 196.99L260.243 189.32L257.513 179.18L260.243 174.37L261.413 170.34L260.893 154.87L260.373 154.61H259.463L256.863 157.99L256.083 160.46L254.393 162.28L254.133 164.75L250.363 169.3L248.673 174.11L247.373 176.97L246.983 179.44L245.033 180.87L244.123 182.04L243.603 185.16L241.913 187.89L240.873 194.39L239.963 196.08L240.223 198.94L241.653 200.37L240.873 201.15V202.32L244.513 203.23L244.253 206.22L242.823 207.13L236.843 207.78L233.463 208.3L229.173 207.39L216.823 207.13L214.743 204.92V203.75L219.553 199.85L220.463 197.77L222.413 195.3L223.843 191.01L224.103 185.03L225.013 182.56L224.623 178.66L225.013 174.37L226.313 172.42L225.533 161.37L224.753 157.47L224.623 152.53L223.843 150.84L224.753 146.16L223.323 141.87L222.413 139.53L221.373 138.49L218.123 139.53L216.823 137.84V135.89L218.123 134.72L220.723 135.37L223.323 134.2L227.873 133.68L229.823 133.03L232.553 133.68L240.873 134.2L242.563 135.89V137.58L237.363 142.13L234.633 142.78L233.463 143.56L232.943 144.34V151.23L231.773 152.92L232.553 155.39L231.253 160.72V165.66L230.083 170.34L231.773 173.46L229.563 177.49L230.083 186.72L232.293 188.54L233.463 188.28L234.893 185.94L235.933 182.56L237.363 178.66L239.963 175.28L240.223 173.72V172.68L244.513 169.3L245.813 163.06L247.373 157.99L249.323 155.78L248.673 149.8L248.413 149.54L252.053 146.03V137.06L251.013 136.15V135.37L251.793 134.72L255.823 134.46L260.373 133.68H267.393L273.893 134.2L276.363 137.97L277.013 140.96Z" stroke="black" stroke-width="2" mask="url(#path-1-outside-1_2083_10)"/>
</svg>
