<svg width="238" height="66" viewBox="0 0 238 66" fill="none" xmlns="http://www.w3.org/2000/svg">
<path d="M60.483 61.6802L57.623 64.5402L53.883 65.3102L43.103 64.7602H40.133L38.263 63.6602L36.613 61.0202L30.343 64.5402L27.263 63.8802L24.953 62.6702L24.623 61.2402V60.9102H23.743L22.203 62.3402L17.913 62.6702L16.483 63.3302L11.203 63.8802L8.89297 63.3302L2.84297 63.6602L0.972965 63.1102L0.312965 61.6802L0.972965 59.0402L5.04297 55.4102L6.03297 54.7502L7.24297 53.1002L6.69297 45.9502L7.46297 43.0902V37.5902L8.67297 31.7602L7.90297 27.9102L8.12297 24.3902L8.67297 22.9602L8.12297 18.6702L7.24297 17.2402L8.67297 15.4802V12.9502L6.69297 11.4102L5.70297 10.7502L3.61297 7.45016L1.74297 5.69015L2.18297 2.83015L5.26297 0.410156L10.103 0.960156H15.273L20.333 1.40016L21.763 3.60015L23.193 5.69015L24.403 6.46016L24.953 7.12016L23.963 12.9502L23.743 18.1202V20.1002L25.833 30.1102L26.053 31.1002L28.693 32.5302V41.6602L29.133 42.3202L30.123 41.8802L31.113 40.1202V36.1602L33.313 33.9602L33.203 30.6602L31.773 28.9002L32.983 26.5902L35.953 22.9602L36.613 18.8902L36.833 7.45016L38.263 4.59015L42.883 0.960156L49.043 0.410156L53.883 1.40016L55.533 0.960156H56.523L59.383 5.69015L58.833 7.89015L58.173 8.55015H55.313L54.103 9.54015L53.333 13.1702L51.903 16.0302L52.343 25.1602L52.453 38.2502L53.333 47.3802L52.673 51.3402L53.773 55.1902L57.623 56.6202L60.483 60.2502V61.6802ZM46.843 23.6202L45.743 20.1002L45.413 16.6902L43.983 16.4702L43.763 17.4602L44.533 20.3202L41.893 24.6102L42.553 28.6802L41.123 30.1102L39.473 33.7402L40.133 36.6002L39.473 39.0202L39.033 46.8302L37.273 50.2402V53.3202L38.043 54.5302H38.813L40.463 53.7602L41.893 51.6702V48.0402L42.883 44.4102L44.533 41.6602L44.753 33.4102L46.843 23.6202ZM23.193 47.3802L22.313 45.9502V41.1102L21.103 38.6902L19.453 28.2402L18.683 22.4102L18.133 18.6702L16.703 15.4802H16.043L13.953 18.8902L15.053 20.7602V25.3802L15.383 29.3402L14.613 31.1002L14.393 34.6202L15.053 45.8402L14.393 47.1602L15.273 55.1902L15.823 55.5202L17.473 55.9602L21.763 55.4102L22.313 54.5302L23.193 47.3802Z" fill="#0D0D0D"/>
<path d="M107.431 37.7002L106.221 40.5602L104.131 43.2002H101.051L92.4715 42.5402L90.4915 43.9702L86.9715 43.4202L85.2115 45.4002L83.1215 43.9702L82.3515 43.7502L81.3615 44.4102L77.4015 45.1802L77.0715 45.4002L76.8515 48.0402L77.4015 48.4802H77.6215L79.6015 48.7002L82.3515 52.3302V55.1902H83.3415L84.5515 53.3202H85.2115L85.5415 53.9802V57.6102L86.2015 58.4902L88.2915 58.8202L88.8415 58.2702V57.0602L89.7215 55.9602L90.9315 55.6302L92.4715 56.6202L95.0015 53.9802L95.3315 54.2002H96.4315L96.9815 53.3202V50.4602L96.2115 49.9102L99.2915 48.2602L101.051 49.4702L104.131 48.4802L106.001 49.6902L106.991 51.3402L106.331 53.7602L102.041 59.0402L94.1215 63.5502L90.4915 64.9802L84.5515 64.2102H79.4915L77.6215 61.9002L73.3315 59.7002L67.7215 53.2102L66.8415 50.3502L66.2915 46.2802L64.8615 43.2002L66.6215 35.8302V32.4202L68.2715 30.3302L69.0415 27.6902L71.1315 26.7002L71.9015 25.4902L72.5615 22.9602L75.2015 20.9802H77.4015L79.4915 18.1202L84.5515 16.4702H90.4915L92.4715 18.1202H95.5515L99.0715 21.2002L101.271 21.7502L101.931 23.1802V25.2702L104.571 27.2502L107.431 33.9602V37.7002ZM99.8415 34.4002V33.9602L99.0715 32.9702L98.4115 30.3302L96.4315 27.6902H95.3315L93.1315 25.4902L89.7215 26.0402L86.6415 24.0602L83.7815 25.0502L76.8515 28.1302L73.7715 31.9802V34.8402L77.4015 35.2802L78.8315 34.4002L81.1415 35.2802L84.5515 35.3902L87.4115 37.2602L88.4015 36.2702L89.5015 34.6202L92.4715 34.8402L94.7815 33.8502L95.9915 34.4002H99.8415ZM78.5015 54.6402V53.3202L78.0615 50.4602H77.4015V53.9802L78.2815 54.7502L78.5015 54.6402Z" fill="#0D0D0D"/>
<path d="M175.83 21.6402L175.17 24.2802L173.96 25.7102H170.66L168.02 26.3702L167.47 27.8002V35.9402L168.24 37.1502V38.5802L167.47 39.5702V44.8502L166.7 48.9202L165.6 52.6602L167.36 53.9802L167.25 57.2802L169.45 58.9302L172.31 60.1402L173.08 60.0302L174.4 61.0202V62.7802L173.74 63.2202L167.25 63.6602L164.61 64.4302L161.75 63.6602H158.23L156.03 60.8002L156.58 60.0302L158.89 58.1602L159.66 58.7102H160.87L162.08 57.2802L161.75 52.2202V45.9502L161.09 43.6402L160.87 43.5302H160.1L158.89 44.5202L156.58 43.6402L153.83 45.9502L150.75 43.8602L145.58 44.5202L144.26 43.0902L142.39 44.3002L141.51 45.2902L142.39 50.3502L141.51 54.6402L142.17 59.3702L142.94 60.1402L145.25 58.7102L147.45 61.3502V62.2302L145.8 63.2202L141.4 63.8802L131.61 62.7802L129.3 62.2302V60.1402L131.39 58.9302L134.25 60.0302L135.24 58.7102L136.78 53.5402L135.46 51.7802L136.78 47.8202L135.9 42.8702V34.5102L137.11 28.3502L136.67 27.0302L135.02 25.1602L130.95 25.6002L129.52 23.7302L129.96 20.8702L134.8 20.6502L135.24 20.1002L142.39 20.8702H143.6L144.59 19.8802L146.68 20.1002L149.87 23.5102V24.5002L149.32 25.1602H144.37L141.51 28.3502L142.39 31.6502L142.17 33.8502L141.51 36.3802L141.73 38.0302L143.6 39.2402H147.45L148.44 38.1402L150.97 38.8002L153.61 35.7202H154.38L155.81 38.0302V40.7802L156.47 41.6602H156.8L158.01 39.2402L158.67 35.9402L160.32 38.0302H160.87L162.08 35.1702V29.4502L162.96 28.0202L162.52 26.3702L161.53 25.7102L158.23 26.3702L155.37 23.0702L156.03 21.3102L157.24 20.1002L167.25 19.4402L168.02 18.7802L173.96 19.8802L175.83 21.6402Z" fill="#0D0D0D"/>
<path d="M237.629 38.0302L237.409 41.8802L237.079 45.9502L236.419 47.3802L236.199 49.5802L234.549 51.8902L234.219 54.7502L232.789 57.9402L232.569 60.2502L231.689 60.8002L228.059 61.2402L224.209 64.1002L219.699 64.7602L212.989 64.1002L211.119 63.1102L210.569 62.4502L208.699 60.3602L208.369 57.8302L206.939 56.8402L205.289 57.0602V62.4502L204.409 63.3302H200.999L199.569 64.1002L195.829 63.3302L188.789 63.8802L186.699 63.1102H183.839L183.069 61.9002L183.839 59.5902L185.929 56.9502L189.779 55.3002L191.209 53.3202L191.649 50.9002L192.419 49.4702L193.079 48.8102L194.069 49.4702L195.499 51.6702V53.3202L197.259 55.0802L200.559 56.7302L201.769 56.5102L201.989 55.0802V54.0902L200.999 53.1002L198.909 52.8802L197.479 51.4502L197.259 47.3802L195.829 46.1702H192.419L191.649 45.4002L191.759 42.5402L192.419 41.1102L192.639 35.8302L193.189 33.0802L192.639 30.8802L190.329 28.0202L190.219 26.5902L187.579 24.9402H185.489L184.059 20.7602V18.8902L185.269 18.0102L193.849 17.2402L195.829 18.2302L203.419 18.8902L203.859 21.7502L201.879 24.9402L202.649 27.5802L204.299 27.1402L205.839 24.5002L206.059 22.0802L207.709 19.6602L211.779 17.9002L218.049 17.2402L219.699 16.0302L222.779 16.4702L226.079 17.9002L228.059 18.2302L232.349 21.0902L233.339 21.5302L234.549 23.5102L235.209 25.8202L236.199 28.0202L236.859 35.1702L237.629 38.0302ZM229.929 44.5202L229.709 35.3902L227.399 31.7602L226.629 28.9002L224.209 26.0402L220.579 24.3902L217.279 25.1602L214.419 27.8002H210.679L210.019 30.0002L208.699 33.7402L208.259 35.9402L211.119 40.2302L209.139 43.7502L210.129 49.5802L211.779 51.8902L211.999 54.0902L213.429 56.5102L214.639 56.9502L219.699 57.9402L223.219 54.0902L225.639 53.7602L227.399 52.4402L228.059 49.0302L229.489 47.3802L229.929 44.5202Z" fill="#0D0D0D"/>
</svg>
